<?xml version="1.0" encoding="utf-8"?>
<!-- Generator: Adobe Illustrator 19.1.0, SVG Export Plug-In . SVG Version: 6.00 Build 0)  -->
<svg version="1.1" id="Layer_1" xmlns="http://www.w3.org/2000/svg" xmlns:xlink="http://www.w3.org/1999/xlink" x="0px" y="0px"
	 viewBox="0 0 15.9 9.4" style="enable-background:new 0 0 15.9 9.4;" xml:space="preserve">
<style type="text/css">
	.st0{fill:#C12023;}
</style>
<g>
	<path class="st0" d="M0.5,4.8v4.5H0V0h0.5v4l2.8-4h0.6L1.3,3.8l3.4,5.6H4.1L1,4.2L0.5,4.8z"/>
	<path d="M6.3,0L6.3,0c1.5,0,2.6,0.4,3.4,1.3C10.6,2.2,11,3.4,11,4.7c0,1.3-0.4,2.5-1.3,3.4C8.9,8.9,7.8,9.4,6.3,9.4h0v0H5.8V0
		L6.3,0L6.3,0z M6.3,0.6v8.3h0c1.3,0,2.3-0.4,3-1.1c0.8-0.8,1.2-1.8,1.2-3c0-1.2-0.4-2.2-1.2-3C8.6,0.9,7.6,0.6,6.3,0.6L6.3,0.6z"/>
	<path d="M13.7,0.5v8.8h-0.5V0.5H11V0h4.9v0.5H13.7z"/>
</g>
</svg>
