<?xml version="1.0" encoding="utf-8"?>
<!-- Generator: Adobe Illustrator 20.1.0, SVG Export Plug-In . SVG Version: 6.00 Build 0)  -->
<svg version="1.1" id="Layer_1" xmlns="http://www.w3.org/2000/svg" xmlns:xlink="http://www.w3.org/1999/xlink" x="0px" y="0px"
	 viewBox="0 0 157.7 94.2" style="enable-background:new 0 0 157.7 94.2;" xml:space="preserve">
<style type="text/css">
	.st0{fill:#6D6E71;}
	.st1{fill:#BF2026;}
	.st2{fill:none;stroke:#6D6E71;stroke-width:0.25;stroke-miterlimit:10;}
</style>
<g>
	<path class="st0" d="M24.4,72h-0.9v-2.4c-0.2,0.3-0.4,0.5-0.6,0.8c-1.1,1.3-2.3,1.9-3.8,1.9c-1.5,0-2.8-0.6-3.8-1.9
		c-1.1-1.3-1.6-2.8-1.6-4.6c0-1.8,0.5-3.3,1.6-4.6c1.1-1.3,2.3-1.9,3.8-1.9c1.5,0,2.8,0.6,3.8,1.9c0.2,0.3,0.4,0.5,0.6,0.8v-8.9h0.9
		V72z M23.5,66.9v-2.1c-0.2-1-0.6-2-1.2-2.7c-0.9-1-1.9-1.6-3.2-1.6c-1.2,0-2.3,0.5-3.2,1.6c-0.9,1-1.3,2.3-1.3,3.8s0.4,2.7,1.3,3.8
		c0.9,1,1.9,1.6,3.2,1.6c1.2,0,2.3-0.5,3.2-1.6C22.9,68.9,23.3,67.9,23.5,66.9"/>
	<path class="st0" d="M37.7,72h-0.9v-2.4c-0.2,0.3-0.4,0.5-0.6,0.8c-1.1,1.3-2.3,1.9-3.8,1.9c-1.5,0-2.8-0.6-3.8-1.9
		c-1.1-1.3-1.6-2.8-1.6-4.6c0-1.8,0.5-3.3,1.6-4.6c1.1-1.3,2.3-1.9,3.8-1.9c1.5,0,2.8,0.6,3.8,1.9c0.2,0.3,0.4,0.5,0.6,0.8v-1.6h0.9
		V72z M36.8,66.9v-2.1c-0.2-1-0.6-2-1.2-2.7c-0.9-1-1.9-1.6-3.2-1.6c-1.2,0-2.3,0.5-3.2,1.6c-0.9,1-1.3,2.3-1.3,3.8s0.4,2.7,1.3,3.8
		c0.9,1,1.9,1.6,3.2,1.6c1.2,0,2.3-0.5,3.2-1.6C36.3,68.9,36.7,67.9,36.8,66.9"/>
	<path class="st0" d="M41.6,63v9h-0.9V60.4h0.9v0.7c0.8-1,1.7-1.4,2.8-1.4c1.1,0,2.1,0.4,2.8,1.3c0.7,0.9,1.1,1.9,1.1,3.2V72h-0.9
		v-7.7c0-1-0.3-1.8-0.9-2.5c-0.6-0.7-1.3-1-2.1-1s-1.5,0.3-2.1,1C41.9,62.2,41.7,62.6,41.6,63"/>
	<path class="st0" d="M59.5,69.2l0.9,0.4c-0.2,0.3-0.4,0.6-0.6,0.8c-1.1,1.3-2.3,1.9-3.8,1.9c-1.5,0-2.8-0.6-3.8-1.9
		c-1.1-1.3-1.6-2.8-1.6-4.6c0-1.8,0.5-3.3,1.6-4.6c1.1-1.3,2.3-1.9,3.8-1.9c1.5,0,2.8,0.6,3.8,1.9c0.2,0.3,0.4,0.5,0.6,0.8l-0.9,0.4
		c-0.1-0.1-0.2-0.3-0.3-0.4c-0.9-1-1.9-1.6-3.2-1.6c-1.2,0-2.3,0.5-3.1,1.6c-0.9,1-1.3,2.3-1.3,3.8c0,1.5,0.4,2.7,1.3,3.8
		c0.9,1,1.9,1.6,3.1,1.6c1.2,0,2.3-0.5,3.2-1.6C59.3,69.5,59.4,69.4,59.5,69.2"/>
	<path class="st0" d="M64.6,69.8c0.8,0.9,1.8,1.4,3,1.4c1.2,0,2.3-0.5,3.2-1.6c0.1-0.1,0.2-0.3,0.3-0.4l0.9,0.4
		c-0.2,0.3-0.4,0.6-0.6,0.8c-1.1,1.3-2.3,1.9-3.8,1.9c-1.5,0-2.8-0.6-3.8-1.9c-1.1-1.3-1.6-2.8-1.6-4.6c0-1.8,0.5-3.3,1.6-4.6
		c1.1-1.3,2.3-1.9,3.8-1.9c1.3,0,2.4,0.5,3.4,1.4c0.2,0.2,0.3,0.3,0.5,0.5c0.1,0.1,0.1,0.1,0.2,0.2l-0.7,0.8L64.6,69.8z M70.2,61.6
		c-0.8-0.7-1.7-1.1-2.7-1.1c-1.2,0-2.3,0.5-3.1,1.6c-0.9,1-1.3,2.3-1.3,3.8c0,1.2,0.3,2.3,0.9,3.2L70.2,61.6z"/>
	<polygon class="st0" points="82.7,60.4 82.7,55.5 83.6,55.5 83.6,60.4 85.5,60.4 85.5,61.5 83.6,61.5 83.6,72 82.7,72 82.7,61.5 
		80.7,61.5 80.7,60.4 	"/>
	<path class="st0" d="M87.9,53.1h0.9V61c0.7-0.9,1.6-1.3,2.7-1.3c1.1,0,2.1,0.4,2.8,1.3c0.7,0.9,1.1,1.9,1.1,3.2V72h-0.9v-7.7
		c0-1-0.3-1.8-0.9-2.5c-0.6-0.7-1.3-1-2.1-1c-0.8,0-1.5,0.3-2.1,1c-0.3,0.3-0.5,0.6-0.6,1V72h-0.9V53.1z"/>
	<path class="st0" d="M100.1,69.8c0.8,0.9,1.8,1.4,3,1.4c1.2,0,2.3-0.5,3.2-1.6c0.1-0.1,0.2-0.3,0.3-0.4l0.9,0.4
		c-0.2,0.3-0.4,0.6-0.6,0.8c-1.1,1.3-2.3,1.9-3.8,1.9c-1.5,0-2.8-0.6-3.8-1.9c-1.1-1.3-1.6-2.8-1.6-4.6c0-1.8,0.5-3.3,1.6-4.6
		c1.1-1.3,2.3-1.9,3.8-1.9c1.3,0,2.4,0.5,3.4,1.4c0.2,0.2,0.3,0.3,0.5,0.5c0.1,0.1,0.1,0.1,0.2,0.2l-0.7,0.8L100.1,69.8z
		 M105.8,61.6c-0.8-0.7-1.7-1.1-2.7-1.1c-1.2,0-2.3,0.5-3.1,1.6c-0.9,1-1.3,2.3-1.3,3.8c0,1.2,0.3,2.3,0.9,3.2L105.8,61.6z"/>
	<path class="st0" d="M120.3,72h-0.9v-2.4c-0.2,0.3-0.4,0.5-0.6,0.8c-1.1,1.3-2.3,1.9-3.8,1.9c-1.5,0-2.8-0.6-3.8-1.9
		c-1.1-1.3-1.6-2.8-1.6-4.6c0-1.8,0.5-3.3,1.6-4.6c1.1-1.3,2.3-1.9,3.8-1.9c1.5,0,2.8,0.6,3.8,1.9c0.2,0.3,0.4,0.5,0.6,0.8v-1.6h0.9
		V72z M119.4,66.9v-2.1c-0.2-1-0.6-2-1.2-2.7c-0.9-1-1.9-1.6-3.2-1.6c-1.2,0-2.3,0.5-3.2,1.6c-0.9,1-1.3,2.3-1.3,3.8
		s0.4,2.7,1.3,3.8c0.9,1,1.9,1.6,3.2,1.6c1.2,0,2.3-0.5,3.2-1.6C118.8,68.9,119.2,67.9,119.4,66.9"/>
	<polygon class="st0" points="124.7,60.4 124.7,55.5 125.5,55.5 125.5,60.4 127.5,60.4 127.5,61.5 125.5,61.5 125.5,72 124.7,72 
		124.7,61.5 122.7,61.5 122.7,60.4 	"/>
	<path class="st0" d="M131.7,69.8c0.8,0.9,1.8,1.4,3,1.4c1.2,0,2.3-0.5,3.2-1.6c0.1-0.1,0.2-0.3,0.3-0.4l0.9,0.4
		c-0.2,0.3-0.4,0.6-0.6,0.8c-1.1,1.3-2.3,1.9-3.8,1.9c-1.5,0-2.8-0.6-3.8-1.9c-1.1-1.3-1.6-2.8-1.6-4.6c0-1.8,0.5-3.3,1.6-4.6
		c1.1-1.3,2.3-1.9,3.8-1.9c1.3,0,2.4,0.5,3.4,1.4c0.2,0.2,0.3,0.3,0.5,0.5c0.1,0.1,0.1,0.1,0.2,0.2l-0.7,0.8L131.7,69.8z
		 M137.3,61.6c-0.8-0.7-1.7-1.1-2.7-1.1c-1.2,0-2.3,0.5-3.1,1.6c-0.9,1-1.3,2.3-1.3,3.8c0,1.2,0.3,2.3,0.9,3.2L137.3,61.6z"/>
	<path class="st0" d="M141.4,60.4h0.9v2.1c0.2-0.3,0.4-0.6,0.6-0.9c0.8-0.9,1.6-1.4,2.4-1.5v1.2c-0.6,0-1.1,0.4-1.7,1.1
		c-0.8,1-1.3,2.2-1.3,3.6v6h-0.9V60.4z"/>
	<polygon class="st0" points="28.1,20.1 20.8,28.2 32.4,46.6 29.1,46.6 19,30.1 16.4,33.1 16.4,46.6 13.7,46.6 13.7,8.8 16.4,8.8 
		16.4,29.2 24.6,20.1 	"/>
	<polygon class="st0" points="43.8,44.2 37.8,56.7 35.5,56.7 42.6,41.7 32.3,20.1 35,20.1 43.8,39.1 52.6,20.1 55.4,20.1 43.8,44.3 
			"/>
	<path class="st0" d="M89.6,25.6l-1.7-1.7c0.1-0.1,0.3-0.3,0.4-0.4c0.4-0.4,0.8-0.8,1.2-1.1c2.4-1.9,5.2-2.9,8.4-2.9
		c3.7,0,6.9,1.3,9.6,4c2.6,2.6,4,5.8,4,9.6c0,3.8-1.3,7-4,9.6c-2.6,2.6-5.8,4-9.6,4c-3.8,0-7-1.3-9.6-4c-0.5-0.5-1-1.1-1.5-1.7
		l2.3-0.8c0.2,0.3,0.5,0.6,0.8,0.9c2.2,2.2,4.8,3.3,7.9,3.3c2.9,0,5.4-1,7.5-2.9L89.6,25.6z M106.9,39.8c1.5-1.9,2.2-4.2,2.2-6.7
		c0-3.1-1.1-5.7-3.3-7.9c-2.2-2.2-4.8-3.3-7.9-3.3c-2.6,0-4.8,0.7-6.7,2.2L106.9,39.8z"/>
	<path class="st0" d="M71.4,47c-6.5,0-11.7-6.2-11.7-13.8c0-7.6,5.3-13.8,11.7-13.8c6.5,0,11.7,6.2,11.7,13.8
		C83.2,40.8,77.9,47,71.4,47 M71.4,21.8c-5.1,0-9.3,5.1-9.3,11.4c0,6.3,4.2,11.4,9.3,11.4c5.2,0,9.3-5.1,9.3-11.4
		C80.8,26.9,76.6,21.8,71.4,21.8"/>
	<rect x="59.8" y="3.4" class="st0" width="2.2" height="43.2"/>
	<rect x="114.8" y="3.4" class="st0" width="2.2" height="43.2"/>
	<path class="st0" d="M126.8,41.6c2.1,1.9,4.6,2.9,7.5,2.9c3.1,0,5.7-1.1,7.9-3.3c0.3-0.3,0.5-0.6,0.8-0.9l2.3,0.8
		c-0.4,0.6-0.9,1.2-1.5,1.7c-2.7,2.6-5.9,4-9.6,4c-3.7,0-6.9-1.3-9.6-4c-2.7-2.6-4-5.9-4-9.6c0-3.7,1.3-6.9,4-9.6
		c2.6-2.6,5.8-4,9.6-4c3.2,0,6,1,8.4,2.9c0.4,0.3,0.8,0.7,1.2,1.1c0.1,0.1,0.3,0.3,0.4,0.4l-1.7,1.7L126.8,41.6z M141,24.3
		c-1.9-1.5-4.2-2.2-6.7-2.2c-3.1,0-5.7,1.1-7.9,3.3c-2.2,2.2-3.3,4.8-3.3,7.9c0,2.6,0.7,4.8,2.2,6.7L141,24.3z"/>
	<polygon class="st1" points="91.2,24.1 89.6,25.6 105.3,41.4 106.9,39.8 	"/>
	<polygon class="st1" points="141,24.2 142.6,25.7 126.8,41.5 125.3,39.9 	"/>
	<g>
		<path class="st0" d="M16.4,83.6h-1.6l-0.7,2.6h-0.3l1.8-6.8l1.8,6.8h-0.3L16.4,83.6z M16.3,83.2l-0.7-2.8l-0.7,2.8H16.3z"/>
		<path class="st0" d="M18,82.1h0.3v0.7c0.1-0.1,0.1-0.2,0.2-0.3c0.2-0.3,0.5-0.5,0.7-0.5v0.4c-0.2,0-0.3,0.1-0.5,0.4
			c-0.3,0.4-0.4,0.8-0.4,1.3v2.1H18V82.1z"/>
		<path class="st0" d="M20.3,82.1v-1.7h0.3v1.7h0.6v0.4h-0.6v3.7h-0.3v-3.7h-0.6v-0.4H20.3z"/>
		<path class="st0" d="M22.2,80.7c0.1,0.1,0.1,0.2,0.1,0.3c0,0.1,0,0.2-0.1,0.3c-0.1,0.1-0.1,0.1-0.2,0.1c-0.1,0-0.1,0-0.2-0.1
			c-0.1-0.1-0.1-0.2-0.1-0.3c0-0.1,0-0.2,0.1-0.3c0.1-0.1,0.1-0.1,0.2-0.1C22.1,80.6,22.2,80.7,22.2,80.7z M22.1,82.1v4.1h-0.3v-4.1
			H22.1z"/>
		<path class="st0" d="M23.9,84.1c-0.2-0.2-0.4-0.3-0.5-0.4c-0.1-0.2-0.2-0.4-0.2-0.7c0-0.3,0.1-0.5,0.2-0.7
			c0.1-0.2,0.3-0.3,0.5-0.3c0.2,0,0.4,0.1,0.5,0.3c0.1,0.2,0.2,0.4,0.2,0.6v0L24.3,83c0-0.2-0.1-0.4-0.1-0.5
			c-0.1-0.1-0.2-0.2-0.3-0.2c-0.1,0-0.2,0.1-0.3,0.2c-0.1,0.1-0.1,0.3-0.1,0.4c0,0.2,0,0.3,0.1,0.4c0,0.1,0.2,0.2,0.3,0.3
			c0.3,0.2,0.4,0.4,0.5,0.5c0.2,0.2,0.3,0.5,0.3,0.9c0,0.3-0.1,0.6-0.3,0.9c-0.2,0.2-0.4,0.4-0.6,0.4c-0.2,0-0.4-0.1-0.6-0.4
			c-0.2-0.2-0.3-0.5-0.3-0.8l0.3-0.1c0,0.2,0.1,0.5,0.2,0.6c0.1,0.2,0.3,0.2,0.4,0.2c0.2,0,0.3-0.1,0.4-0.2c0.1-0.2,0.2-0.4,0.2-0.6
			c0-0.2-0.1-0.4-0.2-0.6C24.2,84.4,24.1,84.2,23.9,84.1z"/>
		<path class="st0" d="M25.9,82.1v-1.7h0.3v1.7h0.6v0.4h-0.6v3.7h-0.3v-3.7h-0.6v-0.4H25.9z"/>
		<path class="st0" d="M27.9,80.7c0.1,0.1,0.1,0.2,0.1,0.3c0,0.1,0,0.2-0.1,0.3c-0.1,0.1-0.1,0.1-0.2,0.1c-0.1,0-0.1,0-0.2-0.1
			c-0.1-0.1-0.1-0.2-0.1-0.3c0-0.1,0-0.2,0.1-0.3c0.1-0.1,0.1-0.1,0.2-0.1C27.8,80.6,27.8,80.7,27.9,80.7z M27.8,82.1v4.1h-0.3v-4.1
			H27.8z"/>
		<path class="st0" d="M31.3,85.2l0.3,0.1c-0.1,0.1-0.1,0.2-0.2,0.3c-0.3,0.4-0.7,0.7-1.2,0.7c-0.4,0-0.8-0.2-1.1-0.7
			c-0.3-0.4-0.5-1-0.5-1.6c0-0.6,0.2-1.2,0.5-1.6c0.3-0.4,0.7-0.7,1.1-0.7c0.4,0,0.8,0.2,1.2,0.7c0.1,0.1,0.1,0.2,0.2,0.3l-0.3,0.1
			c0,0-0.1-0.1-0.1-0.2c-0.3-0.4-0.6-0.6-0.9-0.6c-0.4,0-0.7,0.2-0.9,0.6s-0.4,0.8-0.4,1.3c0,0.5,0.1,1,0.4,1.3
			c0.3,0.4,0.6,0.6,0.9,0.6c0.4,0,0.7-0.2,0.9-0.6C31.2,85.3,31.2,85.2,31.3,85.2z"/>
		<path class="st0" d="M34.6,79.5L34.6,79.5c0.8,0,1.4,0.3,1.8,0.9c0.5,0.7,0.7,1.5,0.7,2.4c0,0.9-0.2,1.8-0.7,2.4
			c-0.4,0.6-1,0.9-1.8,0.9h0v0h-0.3v-6.7L34.6,79.5L34.6,79.5z M34.6,79.9v5.9h0c0.7,0,1.2-0.3,1.6-0.8c0.4-0.6,0.6-1.3,0.6-2.2
			c0-0.8-0.2-1.6-0.6-2.2C35.9,80.2,35.3,79.9,34.6,79.9L34.6,79.9z"/>
		<path class="st0" d="M38.3,80.7c0.1,0.1,0.1,0.2,0.1,0.3c0,0.1,0,0.2-0.1,0.3c-0.1,0.1-0.1,0.1-0.2,0.1c-0.1,0-0.1,0-0.2-0.1
			c-0.1-0.1-0.1-0.2-0.1-0.3c0-0.1,0-0.2,0.1-0.3c0.1-0.1,0.1-0.1,0.2-0.1C38.2,80.6,38.2,80.7,38.3,80.7z M38.2,82.1v4.1H38v-4.1
			H38.2z"/>
		<path class="st0" d="M39.2,82.1h0.3v0.7c0.1-0.1,0.1-0.2,0.2-0.3c0.2-0.3,0.5-0.5,0.7-0.5v0.4c-0.2,0-0.3,0.1-0.5,0.4
			c-0.3,0.4-0.4,0.8-0.4,1.3v2.1h-0.3V82.1z"/>
		<path class="st0" d="M41.5,85.4c0.3,0.3,0.5,0.5,0.9,0.5c0.4,0,0.7-0.2,0.9-0.6c0,0,0.1-0.1,0.1-0.1l0.3,0.1
			c-0.1,0.1-0.1,0.2-0.2,0.3c-0.3,0.4-0.7,0.7-1.2,0.7c-0.4,0-0.8-0.2-1.1-0.7c-0.3-0.4-0.5-1-0.5-1.6c0-0.6,0.2-1.2,0.5-1.6
			c0.3-0.4,0.7-0.7,1.1-0.7c0.4,0,0.7,0.2,1,0.5c0,0.1,0.1,0.1,0.1,0.2c0,0,0,0.1,0.1,0.1l-0.2,0.3L41.5,85.4z M43.2,82.5
			c-0.2-0.3-0.5-0.4-0.8-0.4c-0.4,0-0.7,0.2-0.9,0.6S41,83.5,41,84c0,0.4,0.1,0.8,0.3,1.1L43.2,82.5z"/>
		<path class="st0" d="M46.9,85.2l0.3,0.1c-0.1,0.1-0.1,0.2-0.2,0.3c-0.3,0.4-0.7,0.7-1.2,0.7c-0.4,0-0.8-0.2-1.1-0.7
			c-0.3-0.4-0.5-1-0.5-1.6c0-0.6,0.2-1.2,0.5-1.6c0.3-0.4,0.7-0.7,1.1-0.7c0.4,0,0.8,0.2,1.2,0.7c0.1,0.1,0.1,0.2,0.2,0.3l-0.3,0.1
			c0,0-0.1-0.1-0.1-0.2c-0.3-0.4-0.6-0.6-0.9-0.6c-0.4,0-0.7,0.2-0.9,0.6c-0.3,0.4-0.4,0.8-0.4,1.3c0,0.5,0.1,1,0.4,1.3
			c0.3,0.4,0.6,0.6,0.9,0.6c0.4,0,0.7-0.2,0.9-0.6C46.8,85.3,46.9,85.2,46.9,85.2z"/>
		<path class="st0" d="M48.3,82.1v-1.7h0.3v1.7h0.6v0.4h-0.6v3.7h-0.3v-3.7h-0.6v-0.4H48.3z"/>
		<path class="st0" d="M51.3,81.7c0.4,0,0.8,0.2,1.1,0.7c0.3,0.4,0.5,1,0.5,1.6c0,0.6-0.2,1.2-0.5,1.6c-0.3,0.4-0.7,0.7-1.1,0.7
			c-0.4,0-0.8-0.2-1.1-0.7c-0.3-0.4-0.5-1-0.5-1.6c0-0.6,0.2-1.2,0.5-1.6C50.5,81.9,50.9,81.7,51.3,81.7z M50.4,82.7
			C50.1,83,50,83.5,50,84c0,0.5,0.1,1,0.4,1.3c0.3,0.4,0.6,0.6,0.9,0.6c0.4,0,0.7-0.2,0.9-0.6c0.3-0.4,0.4-0.8,0.4-1.3
			c0-0.5-0.1-1-0.4-1.3c-0.3-0.4-0.6-0.6-0.9-0.6C51,82.1,50.6,82.3,50.4,82.7z"/>
		<path class="st0" d="M53.7,82.1h0.3v0.7c0.1-0.1,0.1-0.2,0.2-0.3c0.2-0.3,0.5-0.5,0.7-0.5v0.4c-0.2,0-0.3,0.1-0.5,0.4
			c-0.3,0.4-0.4,0.8-0.4,1.3v2.1h-0.3V82.1z"/>
		<path class="st0" d="M57,79.5h0.3l-2.1,6.7h-0.3L57,79.5z"/>
		<path class="st0" d="M61.4,85.1l0.2,0.3c-0.5,0.6-1,0.9-1.6,0.9c-0.7,0-1.2-0.3-1.7-1c-0.5-0.7-0.7-1.5-0.7-2.4
			c0-0.9,0.2-1.8,0.7-2.4c0.5-0.7,1-1,1.7-1c0.6,0,1.2,0.3,1.6,0.9l-0.2,0.3c-0.4-0.5-0.9-0.8-1.4-0.8c-0.6,0-1.1,0.3-1.5,0.9
			c-0.4,0.6-0.6,1.3-0.6,2.1c0,0.8,0.2,1.6,0.6,2.2c0.4,0.6,0.9,0.9,1.5,0.9C60.5,85.9,61,85.6,61.4,85.1z"/>
		<path class="st0" d="M62.3,79.5h0.3v2.8c0.2-0.3,0.5-0.5,0.8-0.5c0.3,0,0.6,0.2,0.8,0.5c0.2,0.3,0.3,0.7,0.3,1.1v2.7h-0.3v-2.7
			c0-0.3-0.1-0.6-0.3-0.9c-0.2-0.2-0.4-0.4-0.6-0.4c-0.2,0-0.5,0.1-0.6,0.4c-0.1,0.1-0.1,0.2-0.2,0.3v3.3h-0.3V79.5z"/>
		<path class="st0" d="M66.9,81.7c0.4,0,0.8,0.2,1.1,0.7c0.3,0.4,0.5,1,0.5,1.6c0,0.6-0.2,1.2-0.5,1.6c-0.3,0.4-0.7,0.7-1.1,0.7
			c-0.4,0-0.8-0.2-1.1-0.7c-0.3-0.4-0.5-1-0.5-1.6c0-0.6,0.2-1.2,0.5-1.6C66.1,81.9,66.4,81.7,66.9,81.7z M65.9,82.7
			c-0.3,0.4-0.4,0.8-0.4,1.3c0,0.5,0.1,1,0.4,1.3c0.3,0.4,0.6,0.6,0.9,0.6c0.4,0,0.7-0.2,0.9-0.6c0.3-0.4,0.4-0.8,0.4-1.3
			c0-0.5-0.1-1-0.4-1.3c-0.3-0.4-0.6-0.6-0.9-0.6C66.5,82.1,66.2,82.3,65.9,82.7z"/>
		<path class="st0" d="M69.2,82.1h0.3v0.7c0.1-0.1,0.1-0.2,0.2-0.3c0.2-0.3,0.5-0.5,0.7-0.5v0.4c-0.2,0-0.3,0.1-0.5,0.4
			c-0.3,0.4-0.4,0.8-0.4,1.3v2.1h-0.3V82.1z"/>
		<path class="st0" d="M71.5,85.4c0.3,0.3,0.5,0.5,0.9,0.5c0.4,0,0.7-0.2,0.9-0.6c0,0,0.1-0.1,0.1-0.1l0.3,0.1
			c-0.1,0.1-0.1,0.2-0.2,0.3c-0.3,0.4-0.7,0.7-1.2,0.7c-0.4,0-0.8-0.2-1.1-0.7c-0.3-0.4-0.5-1-0.5-1.6c0-0.6,0.2-1.2,0.5-1.6
			c0.3-0.4,0.7-0.7,1.1-0.7c0.4,0,0.7,0.2,1,0.5c0,0.1,0.1,0.1,0.1,0.2c0,0,0,0.1,0.1,0.1l-0.2,0.3L71.5,85.4z M73.2,82.5
			c-0.2-0.3-0.5-0.4-0.8-0.4c-0.4,0-0.7,0.2-0.9,0.6s-0.4,0.8-0.4,1.3c0,0.4,0.1,0.8,0.3,1.1L73.2,82.5z"/>
		<path class="st0" d="M75.9,81.7c0.4,0,0.8,0.2,1.1,0.7c0.3,0.4,0.5,1,0.5,1.6c0,0.6-0.2,1.2-0.5,1.6c-0.3,0.4-0.7,0.7-1.1,0.7
			c-0.4,0-0.8-0.2-1.1-0.7c-0.3-0.4-0.5-1-0.5-1.6c0-0.6,0.2-1.2,0.5-1.6C75.1,81.9,75.5,81.7,75.9,81.7z M75,82.7
			c-0.3,0.4-0.4,0.8-0.4,1.3c0,0.5,0.1,1,0.4,1.3c0.3,0.4,0.6,0.6,0.9,0.6c0.4,0,0.7-0.2,0.9-0.6c0.3-0.4,0.4-0.8,0.4-1.3
			c0-0.5-0.1-1-0.4-1.3c-0.3-0.4-0.6-0.6-0.9-0.6C75.5,82.1,75.2,82.3,75,82.7z"/>
		<path class="st0" d="M81.1,85.4c0,0.1-0.1,0.2-0.2,0.3c-0.3,0.4-0.7,0.7-1.2,0.7c-0.4,0-0.8-0.2-1.1-0.7c-0.3-0.4-0.5-1-0.5-1.6
			c0-0.6,0.2-1.2,0.5-1.6c0.3-0.4,0.7-0.7,1.1-0.7c0.4,0,0.8,0.2,1.2,0.7c0.1,0.1,0.1,0.2,0.2,0.3v-0.6h0.3v3.2
			c0,0.6-0.2,1.1-0.5,1.6c-0.3,0.4-0.7,0.7-1.1,0.7c-0.4,0-0.8-0.2-1.2-0.7c-0.1-0.1-0.1-0.2-0.2-0.3l0.3-0.1c0,0,0.1,0.1,0.1,0.1
			c0.3,0.4,0.6,0.6,0.9,0.6c0.4,0,0.7-0.2,0.9-0.6C81,86.2,81.1,85.8,81.1,85.4z M81.1,83.6c-0.1-0.4-0.2-0.7-0.4-0.9
			c-0.3-0.4-0.6-0.6-0.9-0.6s-0.7,0.2-0.9,0.6c-0.3,0.4-0.4,0.8-0.4,1.3c0,0.5,0.1,1,0.4,1.3c0.3,0.4,0.6,0.6,0.9,0.6
			s0.7-0.2,0.9-0.6c0.2-0.3,0.3-0.6,0.4-0.9V83.6z"/>
		<path class="st0" d="M82.3,82.1h0.3v0.7c0.1-0.1,0.1-0.2,0.2-0.3c0.2-0.3,0.5-0.5,0.7-0.5v0.4c-0.2,0-0.3,0.1-0.5,0.4
			c-0.3,0.4-0.4,0.8-0.4,1.3v2.1h-0.3V82.1z"/>
		<path class="st0" d="M87.2,86.2h-0.3v-0.8c-0.1,0.1-0.1,0.2-0.2,0.3c-0.3,0.4-0.7,0.7-1.2,0.7c-0.4,0-0.8-0.2-1.1-0.7
			c-0.3-0.4-0.5-1-0.5-1.6c0-0.6,0.2-1.2,0.5-1.6c0.3-0.4,0.7-0.7,1.1-0.7c0.5,0,0.8,0.2,1.2,0.7c0.1,0.1,0.1,0.2,0.2,0.3v-0.6h0.3
			V86.2z M86.9,84.4v-0.7c0-0.4-0.2-0.7-0.4-1c-0.3-0.4-0.6-0.6-1-0.6s-0.7,0.2-0.9,0.6c-0.3,0.4-0.4,0.8-0.4,1.3
			c0,0.5,0.1,1,0.4,1.3c0.3,0.4,0.6,0.6,0.9,0.6s0.7-0.2,1-0.6C86.8,85.1,86.9,84.7,86.9,84.4z"/>
		<path class="st0" d="M88.1,82.1h0.3v0.6c0-0.1,0.1-0.2,0.2-0.3c0.3-0.4,0.7-0.7,1.1-0.7c0.5,0,0.8,0.2,1.2,0.7
			c0.3,0.4,0.5,1,0.5,1.6c0,0.6-0.2,1.2-0.5,1.6c-0.3,0.4-0.7,0.7-1.2,0.7c-0.4,0-0.8-0.2-1.1-0.7c-0.1-0.1-0.1-0.2-0.2-0.3v2.4
			h-0.3V82.1z M88.4,83.6v0.8c0.1,0.4,0.2,0.7,0.4,0.9c0.3,0.4,0.6,0.6,0.9,0.6c0.4,0,0.7-0.2,1-0.6c0.3-0.4,0.4-0.8,0.4-1.3
			c0-0.5-0.1-1-0.4-1.3c-0.3-0.4-0.6-0.6-1-0.6c-0.4,0-0.7,0.2-0.9,0.6C88.6,82.9,88.5,83.3,88.4,83.6z"/>
		<path class="st0" d="M92.1,79.5h0.3v2.8c0.2-0.3,0.5-0.5,0.8-0.5c0.3,0,0.6,0.2,0.8,0.5c0.2,0.3,0.3,0.7,0.3,1.1v2.7h-0.3v-2.7
			c0-0.3-0.1-0.6-0.3-0.9c-0.2-0.2-0.4-0.4-0.6-0.4c-0.2,0-0.5,0.1-0.6,0.4c-0.1,0.1-0.1,0.2-0.2,0.3v3.3h-0.3V79.5z"/>
		<path class="st0" d="M95.8,85.4c0.3,0.3,0.5,0.5,0.9,0.5c0.4,0,0.7-0.2,1-0.6c0,0,0.1-0.1,0.1-0.1l0.3,0.1
			c-0.1,0.1-0.1,0.2-0.2,0.3c-0.3,0.4-0.7,0.7-1.2,0.7c-0.4,0-0.8-0.2-1.1-0.7c-0.3-0.4-0.5-1-0.5-1.6c0-0.6,0.2-1.2,0.5-1.6
			c0.3-0.4,0.7-0.7,1.1-0.7c0.4,0,0.7,0.2,1,0.5c0,0.1,0.1,0.1,0.1,0.2c0,0,0,0.1,0,0.1l-0.2,0.3L95.8,85.4z M97.5,82.5
			c-0.2-0.3-0.5-0.4-0.8-0.4c-0.4,0-0.7,0.2-0.9,0.6c-0.3,0.4-0.4,0.8-0.4,1.3c0,0.4,0.1,0.8,0.3,1.1L97.5,82.5z"/>
		<path class="st0" d="M98.7,82.1H99v0.7c0.1-0.1,0.1-0.2,0.2-0.3c0.2-0.3,0.5-0.5,0.7-0.5v0.4c-0.2,0-0.3,0.1-0.5,0.4
			c-0.3,0.4-0.4,0.8-0.4,1.3v2.1h-0.3V82.1z"/>
	</g>
	<path class="st2" d="M17.1,86.2h0.3l-1.8-6.8l-1.8,6.8h0.3l0.7-2.6h1.6L17.1,86.2z M14.9,83.2l0.7-2.8l0.7,2.8H14.9z"/>
	<path class="st2" d="M18,86.2h0.3v-2.1c0-0.5,0.1-0.9,0.4-1.3c0.2-0.3,0.4-0.4,0.5-0.4V82c-0.2,0-0.5,0.2-0.7,0.5
		c-0.1,0.1-0.1,0.2-0.2,0.3v-0.7H18V86.2z"/>
	<polygon class="st2" points="19.7,82.1 19.7,82.5 20.3,82.5 20.3,86.2 20.5,86.2 20.5,82.5 21.1,82.5 21.1,82.1 20.5,82.1 
		20.5,80.3 20.3,80.3 20.3,82.1 	"/>
	<path class="st2" d="M22,80.6c-0.1,0-0.1,0-0.2,0.1c-0.1,0.1-0.1,0.2-0.1,0.3c0,0.1,0,0.2,0.1,0.3c0.1,0.1,0.1,0.1,0.2,0.1
		c0.1,0,0.1,0,0.2-0.1c0.1-0.1,0.1-0.2,0.1-0.3c0-0.1,0-0.2-0.1-0.3C22.2,80.7,22.1,80.6,22,80.6z M21.9,86.2h0.3v-4.1h-0.3V86.2z"
		/>
	<path class="st2" d="M24.3,84.5c0.1,0.2,0.2,0.4,0.2,0.6c0,0.2-0.1,0.4-0.2,0.6c-0.1,0.2-0.3,0.2-0.4,0.2c-0.2,0-0.3-0.1-0.4-0.2
		c-0.1-0.2-0.2-0.4-0.2-0.6L23,85.1c0,0.3,0.1,0.5,0.3,0.8c0.2,0.2,0.4,0.4,0.6,0.4c0.2,0,0.4-0.1,0.6-0.4c0.2-0.2,0.3-0.5,0.3-0.9
		c0-0.3-0.1-0.6-0.3-0.9c-0.1-0.2-0.3-0.3-0.5-0.5c-0.2-0.1-0.3-0.2-0.3-0.3c-0.1-0.1-0.1-0.3-0.1-0.4c0-0.2,0-0.3,0.1-0.4
		c0.1-0.1,0.2-0.2,0.3-0.2c0.1,0,0.2,0.1,0.3,0.2c0.1,0.1,0.1,0.3,0.1,0.5l0.2-0.1v0c0-0.2-0.1-0.4-0.2-0.6
		c-0.1-0.2-0.3-0.3-0.5-0.3c-0.2,0-0.4,0.1-0.5,0.3c-0.1,0.2-0.2,0.4-0.2,0.7c0,0.3,0.1,0.5,0.2,0.7c0.1,0.1,0.2,0.3,0.5,0.4
		C24.1,84.2,24.2,84.4,24.3,84.5z"/>
	<polygon class="st2" points="25.3,82.1 25.3,82.5 25.9,82.5 25.9,86.2 26.2,86.2 26.2,82.5 26.8,82.5 26.8,82.1 26.2,82.1 
		26.2,80.3 25.9,80.3 25.9,82.1 	"/>
	<path class="st2" d="M27.7,80.6c-0.1,0-0.1,0-0.2,0.1c-0.1,0.1-0.1,0.2-0.1,0.3c0,0.1,0,0.2,0.1,0.3c0.1,0.1,0.1,0.1,0.2,0.1
		c0.1,0,0.1,0,0.2-0.1c0.1-0.1,0.1-0.2,0.1-0.3c0-0.1,0-0.2-0.1-0.3C27.8,80.7,27.8,80.6,27.7,80.6z M27.6,86.2h0.3v-4.1h-0.3V86.2z
		"/>
	<path class="st2" d="M31.2,85.3c-0.3,0.4-0.6,0.6-1,0.6c-0.4,0-0.7-0.2-0.9-0.6C29,85,28.9,84.5,28.9,84c0-0.5,0.1-1,0.4-1.3
		c0.3-0.4,0.6-0.6,0.9-0.6c0.4,0,0.7,0.2,1,0.6c0,0,0.1,0.1,0.1,0.1l0.3-0.1c-0.1-0.1-0.1-0.2-0.2-0.3c-0.3-0.4-0.7-0.7-1.2-0.7
		c-0.4,0-0.8,0.2-1.1,0.7c-0.3,0.4-0.5,1-0.5,1.6c0,0.6,0.2,1.2,0.5,1.6c0.3,0.4,0.7,0.7,1.1,0.7c0.5,0,0.8-0.2,1.2-0.7
		c0.1-0.1,0.1-0.2,0.2-0.3l-0.3-0.1C31.2,85.2,31.2,85.3,31.2,85.3z"/>
	<path class="st2" d="M34.6,79.5h-0.3v6.7h0.3v0h0c0.8,0,1.4-0.3,1.8-0.9c0.5-0.7,0.7-1.5,0.7-2.4c0-0.9-0.2-1.8-0.7-2.4
		C36,79.8,35.4,79.5,34.6,79.5L34.6,79.5L34.6,79.5z M34.6,79.9c0.7,0,1.2,0.3,1.6,0.8c0.4,0.6,0.6,1.3,0.6,2.2
		c0,0.8-0.2,1.6-0.6,2.2c-0.4,0.5-0.9,0.8-1.6,0.8h0L34.6,79.9L34.6,79.9z"/>
	<path class="st2" d="M38.1,80.6c-0.1,0-0.1,0-0.2,0.1c-0.1,0.1-0.1,0.2-0.1,0.3c0,0.1,0,0.2,0.1,0.3c0.1,0.1,0.1,0.1,0.2,0.1
		c0.1,0,0.1,0,0.2-0.1c0.1-0.1,0.1-0.2,0.1-0.3c0-0.1,0-0.2-0.1-0.3C38.2,80.7,38.2,80.6,38.1,80.6z M38,86.2h0.3v-4.1H38V86.2z"/>
	<path class="st2" d="M39.2,86.2h0.3v-2.1c0-0.5,0.1-0.9,0.4-1.3c0.2-0.3,0.4-0.4,0.5-0.4V82c-0.2,0-0.5,0.2-0.7,0.5
		c-0.1,0.1-0.1,0.2-0.2,0.3v-0.7h-0.3V86.2z"/>
	<path class="st2" d="M41.3,85.1C41.1,84.8,41,84.4,41,84c0-0.5,0.1-1,0.4-1.3c0.3-0.4,0.6-0.6,0.9-0.6c0.3,0,0.6,0.1,0.8,0.4
		L41.3,85.1z M43.4,82.7l0.2-0.3c0,0,0,0-0.1-0.1c0-0.1-0.1-0.1-0.1-0.2c-0.3-0.3-0.6-0.5-1-0.5c-0.4,0-0.8,0.2-1.1,0.7
		c-0.3,0.4-0.5,1-0.5,1.6c0,0.6,0.2,1.2,0.5,1.6c0.3,0.4,0.7,0.7,1.1,0.7c0.5,0,0.8-0.2,1.2-0.7c0.1-0.1,0.1-0.2,0.2-0.3l-0.3-0.1
		c0,0-0.1,0.1-0.1,0.1c-0.3,0.4-0.6,0.6-1,0.6c-0.3,0-0.6-0.2-0.9-0.5L43.4,82.7z"/>
	<path class="st2" d="M46.8,85.3c-0.3,0.4-0.6,0.6-1,0.6c-0.4,0-0.7-0.2-0.9-0.6c-0.3-0.4-0.4-0.8-0.4-1.3c0-0.5,0.1-1,0.4-1.3
		c0.3-0.4,0.6-0.6,0.9-0.6c0.4,0,0.7,0.2,1,0.6c0,0,0.1,0.1,0.1,0.1l0.3-0.1c-0.1-0.1-0.1-0.2-0.2-0.3c-0.3-0.4-0.7-0.7-1.2-0.7
		c-0.4,0-0.8,0.2-1.1,0.7c-0.3,0.4-0.5,1-0.5,1.6c0,0.6,0.2,1.2,0.5,1.6c0.3,0.4,0.7,0.7,1.1,0.7c0.5,0,0.8-0.2,1.2-0.7
		c0.1-0.1,0.1-0.2,0.2-0.3l-0.3-0.1C46.9,85.2,46.8,85.3,46.8,85.3z"/>
	<polygon class="st2" points="47.7,82.1 47.7,82.5 48.3,82.5 48.3,86.2 48.6,86.2 48.6,82.5 49.2,82.5 49.2,82.1 48.6,82.1 
		48.6,80.3 48.3,80.3 48.3,82.1 	"/>
	<path class="st2" d="M51.3,82.1c0.4,0,0.7,0.2,1,0.6c0.3,0.4,0.4,0.8,0.4,1.3c0,0.5-0.1,1-0.4,1.3c-0.3,0.4-0.6,0.6-1,0.6
		s-0.7-0.2-1-0.6C50.1,85,50,84.5,50,84c0-0.5,0.1-1,0.4-1.3C50.6,82.3,51,82.1,51.3,82.1z M50.2,82.4c-0.3,0.4-0.5,1-0.5,1.6
		c0,0.6,0.2,1.2,0.5,1.6c0.3,0.4,0.7,0.7,1.1,0.7c0.5,0,0.8-0.2,1.1-0.7c0.3-0.4,0.5-1,0.5-1.6c0-0.6-0.2-1.2-0.5-1.6
		c-0.3-0.4-0.7-0.7-1.1-0.7C50.9,81.7,50.5,81.9,50.2,82.4z"/>
	<path class="st2" d="M53.7,86.2h0.3v-2.1c0-0.5,0.1-0.9,0.4-1.3c0.2-0.3,0.4-0.4,0.5-0.4V82c-0.2,0-0.5,0.2-0.7,0.5
		c-0.1,0.1-0.1,0.2-0.2,0.3v-0.7h-0.3V86.2z"/>
	<polygon class="st2" points="54.8,86.2 55.1,86.2 57.3,79.5 57,79.5 	"/>
	<path class="st2" d="M59.9,85.9c-0.6,0-1.1-0.3-1.5-0.9c-0.4-0.6-0.6-1.3-0.6-2.2c0-0.8,0.2-1.6,0.6-2.1c0.4-0.6,0.9-0.9,1.5-0.9
		c0.5,0,1,0.3,1.4,0.8l0.2-0.3c-0.5-0.6-1-0.9-1.6-0.9c-0.7,0-1.2,0.3-1.7,1c-0.5,0.7-0.7,1.5-0.7,2.4c0,0.9,0.2,1.8,0.7,2.4
		c0.5,0.7,1,1,1.7,1c0.6,0,1.2-0.3,1.6-0.9l-0.2-0.3C61,85.6,60.5,85.9,59.9,85.9z"/>
	<path class="st2" d="M62.3,86.2h0.3v-3.3c0-0.1,0.1-0.2,0.2-0.3c0.2-0.2,0.4-0.4,0.6-0.4c0.2,0,0.5,0.1,0.6,0.4
		c0.2,0.2,0.3,0.5,0.3,0.9v2.7h0.3v-2.7c0-0.5-0.1-0.8-0.3-1.2c-0.2-0.3-0.5-0.5-0.8-0.5c-0.3,0-0.6,0.2-0.8,0.5v-2.8h-0.3V86.2z"/>
	<path class="st2" d="M66.9,82.1c0.4,0,0.7,0.2,1,0.6c0.3,0.4,0.4,0.8,0.4,1.3c0,0.5-0.1,1-0.4,1.3c-0.3,0.4-0.6,0.6-1,0.6
		c-0.4,0-0.7-0.2-1-0.6c-0.3-0.4-0.4-0.8-0.4-1.3c0-0.5,0.1-1,0.4-1.3C66.2,82.3,66.5,82.1,66.9,82.1z M65.7,82.4
		c-0.3,0.4-0.5,1-0.5,1.6c0,0.6,0.2,1.2,0.5,1.6c0.3,0.4,0.7,0.7,1.1,0.7c0.5,0,0.8-0.2,1.1-0.7c0.3-0.4,0.5-1,0.5-1.6
		c0-0.6-0.2-1.2-0.5-1.6c-0.3-0.4-0.7-0.7-1.1-0.7C66.4,81.7,66,81.9,65.7,82.4z"/>
	<path class="st2" d="M69.2,86.2h0.3v-2.1c0-0.5,0.1-0.9,0.4-1.3c0.2-0.3,0.4-0.4,0.5-0.4V82c-0.2,0-0.5,0.2-0.7,0.5
		c-0.1,0.1-0.1,0.2-0.2,0.3v-0.7h-0.3V86.2z"/>
	<path class="st2" d="M71.3,85.1c-0.2-0.3-0.3-0.7-0.3-1.1c0-0.5,0.1-1,0.4-1.3c0.3-0.4,0.6-0.6,0.9-0.6c0.3,0,0.6,0.1,0.8,0.4
		L71.3,85.1z M73.4,82.7l0.2-0.3c0,0,0,0-0.1-0.1c0-0.1-0.1-0.1-0.1-0.2c-0.3-0.3-0.6-0.5-1-0.5c-0.4,0-0.8,0.2-1.1,0.7
		c-0.3,0.4-0.5,1-0.5,1.6c0,0.6,0.2,1.2,0.5,1.6c0.3,0.4,0.7,0.7,1.1,0.7c0.5,0,0.8-0.2,1.2-0.7c0.1-0.1,0.1-0.2,0.2-0.3l-0.3-0.1
		c0,0-0.1,0.1-0.1,0.1c-0.3,0.4-0.6,0.6-1,0.6c-0.3,0-0.6-0.2-0.9-0.5L73.4,82.7z"/>
	<path class="st2" d="M75.9,82.1c0.4,0,0.7,0.2,1,0.6c0.3,0.4,0.4,0.8,0.4,1.3c0,0.5-0.1,1-0.4,1.3c-0.3,0.4-0.6,0.6-1,0.6
		c-0.4,0-0.7-0.2-1-0.6c-0.3-0.4-0.4-0.8-0.4-1.3c0-0.5,0.1-1,0.4-1.3C75.2,82.3,75.5,82.1,75.9,82.1z M74.8,82.4
		c-0.3,0.4-0.5,1-0.5,1.6c0,0.6,0.2,1.2,0.5,1.6c0.3,0.4,0.7,0.7,1.1,0.7c0.5,0,0.8-0.2,1.1-0.7c0.3-0.4,0.5-1,0.5-1.6
		c0-0.6-0.2-1.2-0.5-1.6c-0.3-0.4-0.7-0.7-1.1-0.7C75.5,81.7,75.1,81.9,74.8,82.4z"/>
	<path class="st2" d="M80.7,86.6c-0.3,0.4-0.6,0.6-0.9,0.6c-0.4,0-0.7-0.2-1-0.6c0,0-0.1-0.1-0.1-0.1l-0.3,0.1
		c0.1,0.1,0.1,0.2,0.2,0.3c0.3,0.4,0.7,0.7,1.2,0.7c0.4,0,0.8-0.2,1.1-0.7c0.3-0.4,0.5-1,0.5-1.6v-3.2h-0.3v0.6
		c-0.1-0.1-0.1-0.2-0.2-0.3c-0.3-0.4-0.7-0.7-1.2-0.7c-0.4,0-0.8,0.2-1.1,0.7c-0.3,0.4-0.5,1-0.5,1.6c0,0.6,0.2,1.2,0.5,1.6
		c0.3,0.4,0.7,0.7,1.1,0.7c0.5,0,0.8-0.2,1.2-0.7c0.1-0.1,0.1-0.2,0.2-0.3C81.1,85.8,80.9,86.2,80.7,86.6z M81.1,84.4
		c-0.1,0.4-0.2,0.7-0.4,0.9c-0.3,0.4-0.6,0.6-1,0.6c-0.4,0-0.7-0.2-1-0.6c-0.3-0.4-0.4-0.8-0.4-1.3c0-0.5,0.1-1,0.4-1.3
		c0.3-0.4,0.6-0.6,1-0.6c0.4,0,0.7,0.2,1,0.6c0.2,0.3,0.3,0.6,0.4,0.9V84.4z"/>
	<path class="st2" d="M82.3,86.2h0.3v-2.1c0-0.5,0.1-0.9,0.4-1.3c0.2-0.3,0.4-0.4,0.5-0.4V82c-0.2,0-0.5,0.2-0.7,0.5
		c-0.1,0.1-0.1,0.2-0.2,0.3v-0.7h-0.3V86.2z"/>
	<path class="st2" d="M86.5,85.3c-0.3,0.4-0.6,0.6-1,0.6c-0.4,0-0.7-0.2-0.9-0.6c-0.3-0.4-0.4-0.8-0.4-1.3c0-0.5,0.1-1,0.4-1.3
		c0.3-0.4,0.6-0.6,0.9-0.6c0.4,0,0.7,0.2,1,0.6c0.2,0.3,0.3,0.6,0.4,1v0.7C86.9,84.7,86.7,85.1,86.5,85.3z M87.2,82.1h-0.3v0.6
		c-0.1-0.1-0.1-0.2-0.2-0.3c-0.3-0.4-0.7-0.7-1.2-0.7c-0.4,0-0.8,0.2-1.1,0.7c-0.3,0.4-0.5,1-0.5,1.6c0,0.6,0.2,1.2,0.5,1.6
		c0.3,0.4,0.7,0.7,1.1,0.7c0.5,0,0.8-0.2,1.2-0.7c0.1-0.1,0.1-0.2,0.2-0.3v0.8h0.3V82.1z"/>
	<path class="st2" d="M88.8,82.7c0.3-0.4,0.6-0.6,0.9-0.6c0.4,0,0.7,0.2,1,0.6c0.3,0.4,0.4,0.8,0.4,1.3c0,0.5-0.1,1-0.4,1.3
		c-0.3,0.4-0.6,0.6-1,0.6c-0.4,0-0.7-0.2-0.9-0.6c-0.2-0.3-0.3-0.6-0.4-0.9v-0.8C88.4,83.3,88.6,82.9,88.8,82.7z M88.1,87.8h0.3
		v-2.4c0,0.1,0.1,0.2,0.2,0.3c0.3,0.4,0.7,0.7,1.1,0.7c0.5,0,0.8-0.2,1.1-0.7c0.3-0.4,0.5-1,0.5-1.6c0-0.6-0.2-1.2-0.5-1.6
		c-0.3-0.4-0.7-0.7-1.1-0.7c-0.4,0-0.8,0.2-1.1,0.7c-0.1,0.1-0.1,0.2-0.2,0.3v-0.6h-0.3V87.8z"/>
	<path class="st2" d="M92.1,86.2h0.3v-3.3c0-0.1,0.1-0.2,0.2-0.3c0.2-0.2,0.4-0.4,0.6-0.4c0.2,0,0.5,0.1,0.6,0.4
		c0.2,0.2,0.3,0.5,0.3,0.9v2.7h0.3v-2.7c0-0.5-0.1-0.8-0.3-1.2c-0.2-0.3-0.5-0.5-0.8-0.5c-0.3,0-0.6,0.2-0.8,0.5v-2.8h-0.3V86.2z"/>
	<path class="st2" d="M95.6,85.1c-0.2-0.3-0.3-0.7-0.3-1.1c0-0.5,0.1-1,0.4-1.3c0.3-0.4,0.6-0.6,0.9-0.6c0.3,0,0.6,0.1,0.8,0.4
		L95.6,85.1z M97.7,82.7l0.2-0.3c0,0,0,0,0-0.1c0-0.1-0.1-0.1-0.1-0.2c-0.3-0.3-0.6-0.5-1-0.5c-0.4,0-0.8,0.2-1.1,0.7
		c-0.3,0.4-0.5,1-0.5,1.6c0,0.6,0.2,1.2,0.5,1.6c0.3,0.4,0.7,0.7,1.1,0.7c0.5,0,0.8-0.2,1.2-0.7c0.1-0.1,0.1-0.2,0.2-0.3l-0.3-0.1
		c0,0-0.1,0.1-0.1,0.1c-0.3,0.4-0.6,0.6-1,0.6c-0.3,0-0.6-0.2-0.9-0.5L97.7,82.7z"/>
	<path class="st2" d="M98.7,86.2H99v-2.1c0-0.5,0.1-0.9,0.4-1.3c0.2-0.3,0.4-0.4,0.5-0.4V82c-0.2,0-0.5,0.2-0.7,0.5
		c-0.1,0.1-0.1,0.2-0.2,0.3v-0.7h-0.3V86.2z"/>
	<g>
		<path class="st1" d="M104.1,82.1c-0.4-0.2-0.7-0.5-1-0.8c-0.2-0.4-0.4-0.8-0.4-1.3c0-0.5,0.1-1,0.4-1.3c0.3-0.4,0.6-0.6,0.9-0.6
			c0.4,0,0.7,0.2,0.9,0.5c0.1,0.2,0.3,0.5,0.4,1l-0.7,0.4c-0.1-0.3-0.2-0.5-0.2-0.6c-0.1-0.2-0.3-0.2-0.4-0.2
			c-0.2,0-0.3,0.1-0.4,0.2c-0.1,0.2-0.2,0.4-0.2,0.6c0,0.2,0.1,0.4,0.2,0.6c0.1,0.2,0.3,0.3,0.5,0.5c0.4,0.2,0.8,0.5,1.1,1
			c0.3,0.5,0.5,1.1,0.5,1.8c0,0.7-0.2,1.3-0.5,1.8c-0.3,0.5-0.8,0.7-1.3,0.7c-0.5,0-0.9-0.2-1.3-0.7c-0.3-0.4-0.5-0.9-0.5-1.6
			l0.7-0.4c0,0.6,0.2,1,0.3,1.3c0.2,0.3,0.4,0.4,0.7,0.4c0.3,0,0.5-0.1,0.7-0.4c0.2-0.3,0.3-0.6,0.3-1c0-0.4-0.1-0.8-0.3-1
			C104.6,82.5,104.4,82.2,104.1,82.1z"/>
		<path class="st1" d="M107.7,85c0.1,0.2,0.3,0.2,0.7,0.2c0.4,0,0.6-0.2,0.9-0.5c0,0,0.1-0.2,0.2-0.3l0.7,0.4
			c-0.2,0.4-0.3,0.6-0.4,0.7c-0.4,0.6-0.9,0.8-1.4,0.8c-0.6,0-1-0.3-1.4-0.8c-0.4-0.6-0.6-1.2-0.6-2c0-0.8,0.2-1.5,0.6-2
			c0.4-0.6,0.9-0.8,1.4-0.8c0.5,0,0.9,0.2,1.3,0.6c0.1,0.1,0.1,0.1,0.2,0.2c0,0,0.1,0.1,0.2,0.3l-0.4,0.5L107.7,85z M108.9,81.8
			c-0.1-0.1-0.3-0.1-0.6-0.1c-0.3,0-0.6,0.2-0.9,0.5c-0.2,0.3-0.4,0.8-0.4,1.3c0,0.4,0,0.7,0.1,0.8L108.9,81.8z"/>
		<path class="st1" d="M114.2,81.4v-3.2h0.7v8h-0.7v-0.6c-0.4,0.5-0.8,0.8-1.2,0.8c-0.6,0-1-0.3-1.4-0.8c-0.4-0.6-0.6-1.2-0.6-2
			c0-0.8,0.2-1.5,0.6-2c0.4-0.6,0.9-0.8,1.4-0.8C113.4,80.6,113.9,80.9,114.2,81.4z M114.2,83.8v-0.8c0-0.3-0.2-0.6-0.3-0.9
			c-0.2-0.4-0.5-0.5-0.9-0.5s-0.6,0.2-0.9,0.5c-0.2,0.4-0.4,0.8-0.4,1.3c0,0.5,0.1,0.9,0.4,1.3c0.2,0.3,0.5,0.5,0.9,0.5
			s0.6-0.2,0.9-0.5C114.1,84.5,114.2,84.2,114.2,83.8z"/>
		<path class="st1" d="M119.2,81.4V81h0.7v5.2h-0.7v-0.6c-0.4,0.5-0.8,0.8-1.2,0.8c-0.6,0-1-0.3-1.4-0.8c-0.4-0.6-0.6-1.2-0.6-2
			c0-0.8,0.2-1.5,0.6-2c0.4-0.6,0.9-0.8,1.4-0.8C118.4,80.6,118.8,80.9,119.2,81.4z M119.2,83.8v-0.8c0-0.3-0.2-0.6-0.3-0.9
			c-0.2-0.3-0.5-0.5-0.9-0.5c-0.4,0-0.6,0.2-0.9,0.5c-0.2,0.3-0.4,0.8-0.4,1.3c0,0.5,0.1,0.9,0.4,1.3c0.2,0.3,0.5,0.5,0.9,0.5
			c0.3,0,0.6-0.2,0.9-0.5C119,84.5,119.1,84.2,119.2,83.8z"/>
		<path class="st1" d="M125.5,78.2l2.1,8h-0.8l-0.7-2.8h-1.5l-0.7,2.8h-0.8l2.1-8H125.5z M125.8,82.3l-0.5-1.9l-0.5,1.9H125.8z"/>
		<path class="st1" d="M129.1,87.9h-0.8l1-2.9l-1.4-4h0.8l0.9,2.8l0.9-2.8h0.8L129.1,87.9z"/>
		<path class="st1" d="M133,85.5v0.6h-0.7v-8h0.7v3.2c0.4-0.5,0.8-0.8,1.2-0.8c0.6,0,1,0.3,1.4,0.8c0.4,0.6,0.6,1.2,0.6,2
			c0,0.8-0.2,1.5-0.6,2c-0.4,0.6-0.9,0.8-1.4,0.8C133.7,86.3,133.3,86.1,133,85.5z M133,83.1v0.8c0,0.3,0.2,0.6,0.3,0.9
			c0.2,0.3,0.5,0.5,0.9,0.5s0.6-0.2,0.9-0.5c0.2-0.3,0.4-0.8,0.4-1.3c0-0.5-0.1-0.9-0.4-1.3c-0.2-0.4-0.5-0.5-0.9-0.5
			s-0.6,0.2-0.9,0.5C133.1,82.5,133,82.7,133,83.1z"/>
		<path class="st1" d="M140.4,81.4V81h0.7v5.2h-0.7v-0.6c-0.4,0.5-0.8,0.8-1.2,0.8c-0.6,0-1-0.3-1.4-0.8c-0.4-0.6-0.6-1.2-0.6-2
			c0-0.8,0.2-1.5,0.6-2c0.4-0.6,0.9-0.8,1.4-0.8C139.6,80.6,140,80.9,140.4,81.4z M140.4,83.8v-0.8c0-0.3-0.2-0.6-0.3-0.9
			c-0.2-0.3-0.5-0.5-0.9-0.5c-0.4,0-0.6,0.2-0.9,0.5c-0.2,0.3-0.4,0.8-0.4,1.3c0,0.5,0.1,0.9,0.4,1.3c0.2,0.3,0.5,0.5,0.9,0.5
			c0.3,0,0.6-0.2,0.9-0.5C140.2,84.5,140.3,84.2,140.4,83.8z"/>
		<path class="st1" d="M143.1,87.9h-0.8l1-2.9l-1.4-4h0.8l0.9,2.8l0.9-2.8h0.8L143.1,87.9z"/>
	</g>
</g>
</svg>
